<?xml version="1.0" standalone="no"?><!DOCTYPE svg PUBLIC "-//W3C//DTD SVG 1.1//EN" "http://www.w3.org/Graphics/SVG/1.1/DTD/svg11.dtd"><svg t="1546850356104" class="icon" style="" viewBox="0 0 1024 1024" version="1.1" xmlns="http://www.w3.org/2000/svg" p-id="5691" xmlns:xlink="http://www.w3.org/1999/xlink" width="48" height="48"><defs><style type="text/css"></style></defs><path d="M512 490.496c-115.512889 0-209.514667-93.959111-209.514667-209.443556 0-115.484444 93.987556-209.436444 209.514667-209.436444s209.514667 93.952 209.514667 209.436444C721.514667 396.536889 627.52 490.496 512 490.496L512 490.496zM512 120.547556c-88.540444 0-160.576 72-160.576 160.504889 0 88.512 72.035556 160.512 160.576 160.512 88.547556 0 160.583111-72 160.583111-160.512C672.583111 192.547556 600.547556 120.547556 512 120.547556L512 120.547556zM512 120.547556M512 952.391111c-174.791111 0-351.182222-49.400889-351.182222-159.751111 0-193.585778 157.532444-351.075556 351.182222-351.075556 193.649778 0 351.189333 157.489778 351.189333 351.075556C863.182222 902.990222 686.798222 952.391111 512 952.391111L512 952.391111zM512 490.496c-166.656 0-302.250667 135.537778-302.250667 302.144 0 62.144 132.771556 110.819556 302.250667 110.819556 169.486222 0 302.257778-48.668444 302.257778-110.819556C814.250667 626.033778 678.663111 490.496 512 490.496L512 490.496zM512 490.496" p-id="5692"></path></svg>